<?xml version="1.0" standalone="no"?>
<!DOCTYPE svg PUBLIC "-//W3C//DTD SVG 20010904//EN"
 "http://www.w3.org/TR/2001/REC-SVG-20010904/DTD/svg10.dtd">
<svg version="1.0" xmlns="http://www.w3.org/2000/svg"
 width="1920.000000pt" height="1080.000000pt" viewBox="0 0 1920.000000 1080.000000"
 preserveAspectRatio="xMidYMid meet">

<g transform="translate(0.000000,1080.000000) scale(0.100000,-0.100000)"
fill="#000000" stroke="none">
<path d="M0 8261 c0 -1810 3 -2542 11 -2547 22 -13 258 -17 353 -5 296 38 558
171 786 400 121 122 213 243 286 376 99 183 136 305 183 612 40 255 59 331
116 450 37 80 58 108 122 172 123 120 239 179 551 275 268 84 425 152 577 250
296 193 473 470 536 838 18 105 21 150 16 308 -8 291 -45 459 -172 780 -81
207 -108 291 -125 398 -11 67 -7 182 7 219 4 11 -275 13 -1621 13 l-1626 0 0
-2539z"/>
<path d="M16905 10093 c-473 -58 -844 -228 -1117 -512 -110 -113 -243 -300
-413 -581 -48 -80 -88 -146 -90 -148 -1 -1 -31 4 -66 13 -262 61 -522 -49
-723 -309 -84 -109 -216 -331 -216 -365 0 -22 31 -17 68 10 57 42 169 95 243
115 87 24 254 24 332 1 31 -10 57 -19 57 -21 0 -1 -48 -103 -106 -226 -87
-184 -104 -227 -95 -242 15 -24 17 -21 -38 -56 -132 -86 -220 -287 -208 -476
6 -90 15 -105 52 -88 l25 12 0 -84 c0 -81 -1 -86 -35 -130 -19 -26 -35 -53
-35 -60 0 -20 101 -40 165 -32 108 12 248 114 345 250 35 49 50 47 50 -6 0
-33 12 -41 50 -33 56 12 137 84 216 191 18 23 24 27 35 17 7 -7 19 -13 27 -13
14 0 138 96 301 233 108 90 101 91 151 -18 72 -158 75 -337 10 -516 -23 -64
-26 -80 -15 -89 16 -13 106 61 235 196 274 285 350 584 217 856 l-33 67 139
138 c187 187 349 367 424 471 250 348 348 865 257 1355 l-16 87 -82 -1 c-44
-1 -94 -4 -111 -6z m-264 -569 c220 -175 403 -322 405 -329 8 -20 -63 -221
-116 -328 -69 -140 -151 -250 -323 -437 -275 -298 -927 -890 -964 -876 -23 9
-323 249 -323 259 0 5 102 137 226 294 205 259 225 287 209 299 -20 15 3 42
-289 -329 -128 -161 -192 -235 -199 -229 -39 29 -304 237 -316 248 -11 10 3
45 89 211 199 384 385 703 574 983 117 175 260 333 379 419 90 66 221 142 234
136 7 -2 193 -147 414 -321z m-1528 -1964 l235 -185 -17 -29 c-23 -42 -114
-138 -149 -159 -30 -17 -31 -17 -37 2 -10 32 -45 71 -63 71 -10 0 -37 -27 -61
-59 -67 -92 -158 -178 -224 -211 -50 -25 -72 -30 -130 -30 -66 0 -69 1 -55 18
35 40 48 81 48 159 0 43 1 92 3 108 2 26 -1 30 -23 29 -14 -1 -33 -4 -42 -9
-16 -6 -18 0 -18 72 0 176 78 330 209 414 42 27 45 28 67 11 13 -9 128 -100
257 -202z m347 -164 c0 -2 -8 -10 -17 -17 -16 -13 -17 -12 -4 4 13 16 21 21
21 13z m640 -220 c0 -2 -8 -10 -17 -17 -16 -13 -17 -12 -4 4 13 16 21 21 21
13z m-50 -49 c0 -2 -17 -19 -37 -38 l-38 -34 34 38 c33 34 41 42 41 34z"/>
<path d="M16040 9346 c-156 -33 -286 -150 -342 -305 -29 -79 -29 -214 1 -295
75 -207 255 -327 470 -314 326 21 529 361 392 653 -66 141 -189 237 -338 265
-70 12 -112 12 -183 -4z m282 -75 c85 -42 158 -118 201 -208 29 -62 32 -77 32
-163 0 -113 -18 -173 -75 -253 -48 -67 -120 -121 -197 -150 -81 -29 -217 -29
-293 1 -300 119 -364 524 -115 722 90 71 151 91 280 87 90 -2 107 -6 167 -36z"/>
<path d="M16057 9250 c-198 -50 -321 -250 -273 -441 30 -114 100 -198 206
-248 47 -22 69 -26 150 -26 82 0 103 4 152 27 106 49 185 153 207 270 38 208
-123 410 -337 423 -37 2 -84 0 -105 -5z m218 -68 c68 -33 127 -92 159 -161 16
-35 21 -65 21 -131 0 -73 -4 -92 -27 -137 -61 -115 -162 -177 -289 -178 -68 0
-84 4 -145 35 -202 103 -235 369 -64 523 63 57 114 75 210 76 63 1 85 -4 135
-27z"/>
<path d="M8717 6379 c-9 -5 -103 -108 -208 -227 -105 -119 -195 -218 -200
-220 -5 -2 -9 72 -9 183 0 114 -4 194 -11 207 -23 42 -135 62 -208 37 -62 -22
-61 -16 -61 -578 0 -360 3 -517 11 -535 7 -14 26 -32 44 -41 61 -28 186 -13
211 26 5 8 11 104 14 214 l5 199 194 -221 c211 -242 237 -263 294 -240 43 19
104 72 123 109 12 23 13 36 4 63 -13 39 -146 187 -293 327 l-102 97 187 189
c189 190 226 240 212 285 -9 31 -72 95 -116 118 -41 21 -65 23 -91 8z"/>
<path d="M12907 6374 c-216 -52 -393 -229 -443 -441 -22 -94 -15 -255 15 -343
63 -181 216 -334 393 -391 59 -19 94 -23 178 -23 163 1 273 34 368 111 73 59
73 63 70 328 -4 305 19 279 -245 283 -261 4 -265 2 -264 -119 0 -102 24 -119
169 -119 l62 0 0 -84 0 -84 -37 -14 c-21 -7 -74 -13 -118 -13 -96 0 -155 24
-223 93 -66 66 -96 139 -96 237 0 97 22 153 84 215 63 63 133 91 227 92 71 0
83 -3 156 -41 100 -52 125 -53 176 -2 48 48 72 92 73 134 1 24 -8 39 -40 67
-120 107 -334 156 -505 114z"/>
<path d="M7378 6365 c-119 -30 -238 -96 -321 -180 -214 -213 -203 -615 21
-827 209 -196 484 -237 722 -106 81 44 110 75 110 115 0 42 -29 100 -73 147
-43 45 -76 47 -138 8 -74 -47 -109 -57 -194 -57 -101 0 -173 32 -240 107 -108
121 -98 333 21 438 111 97 272 111 395 35 72 -44 107 -45 153 -4 71 62 97 140
64 191 -21 32 -129 94 -208 120 -83 27 -232 33 -312 13z"/>
<path d="M3502 6358 c-33 -16 -48 -100 -29 -169 11 -42 43 -49 237 -49 l179 0
3 -450 3 -449 22 -23 c27 -27 131 -37 188 -18 65 21 65 25 65 510 l0 430 185
0 c184 0 186 0 210 25 22 21 25 33 25 90 0 57 -3 69 -25 90 l-24 25 -508 -1
c-346 0 -515 -4 -531 -11z"/>
<path d="M4754 6363 c-12 -2 -32 -15 -45 -29 l-24 -26 -3 -504 c-1 -277 1
-518 6 -536 4 -17 20 -41 35 -52 36 -27 130 -33 180 -12 54 22 67 60 67 196
l0 110 88 0 c48 0 103 3 123 6 l36 6 64 -148 c66 -155 94 -194 138 -194 44 0
123 33 159 67 45 42 42 56 -38 245 l-62 145 36 50 c46 65 63 105 76 187 35
223 -109 434 -331 485 -42 10 -460 13 -505 4z m493 -303 c59 -35 82 -125 48
-189 -26 -51 -85 -71 -213 -71 l-112 0 0 140 0 140 123 0 c103 0 127 -3 154
-20z"/>
<path d="M6179 6348 c-20 -11 -46 -37 -57 -57 -67 -120 -455 -943 -459 -974
-5 -30 -1 -43 18 -63 35 -38 112 -74 157 -74 52 0 79 30 138 158 l47 102 223
0 224 0 59 -118 c33 -65 67 -124 76 -132 26 -22 84 -16 142 13 67 34 96 72 90
113 -5 29 -439 940 -473 992 -39 60 -121 78 -185 40z m121 -558 c27 -55 50
-102 50 -105 0 -3 -47 -5 -105 -5 l-105 0 52 105 c29 58 54 105 55 105 2 0 25
-45 53 -100z"/>
<path d="M9053 6360 c-34 -14 -46 -46 -41 -118 6 -101 10 -102 234 -102 l183
0 3 -437 c2 -351 6 -443 17 -465 18 -36 67 -51 148 -46 57 4 69 8 89 32 l24
27 0 445 0 444 179 0 c99 0 191 4 204 9 62 24 62 182 1 210 -30 13 -1007 15
-1041 1z"/>
<path d="M10712 6353 c-18 -9 -41 -28 -51 -42 -39 -58 -474 -976 -474 -1002 0
-15 7 -39 16 -52 23 -35 112 -77 163 -77 53 0 71 21 139 158 l49 102 223 0
222 0 54 -112 c62 -131 83 -153 137 -152 50 2 140 52 163 92 16 27 17 37 7 68
-12 36 -420 886 -460 957 -39 71 -117 96 -188 60z m118 -565 l49 -103 -49 -3
c-27 -2 -73 -2 -103 0 l-54 3 48 103 c26 56 51 102 54 102 3 0 28 -46 55 -102z"/>
<path d="M11513 6355 c-17 -7 -36 -22 -42 -34 -17 -31 -15 -1048 2 -1081 22
-43 117 -62 199 -39 57 15 68 45 68 189 l0 120 105 2 c58 1 115 2 127 2 18 1
31 -20 85 -144 67 -156 94 -190 146 -190 41 0 114 33 150 67 41 40 36 75 -38
245 l-65 150 35 40 c49 58 77 137 83 235 12 203 -107 372 -305 433 -57 18 -92
20 -292 20 -169 -1 -234 -4 -258 -15z m489 -284 c72 -27 106 -117 72 -187 -35
-69 -59 -79 -205 -82 l-129 -4 0 141 0 141 119 0 c66 0 130 -4 143 -9z"/>
<path d="M13682 6355 c-63 -28 -63 -28 -60 -595 l3 -510 28 -27 27 -28 405 0
404 0 23 23 c19 18 23 36 26 97 3 43 -1 87 -7 103 -23 55 -32 57 -338 60
l-283 4 0 79 0 79 190 0 c119 0 198 4 214 11 33 15 51 62 51 129 0 134 -12
140 -265 140 l-190 0 0 79 0 79 283 4 c306 3 315 5 338 60 6 16 10 60 7 103
-3 61 -7 79 -26 97 l-23 23 -387 2 c-319 2 -393 0 -420 -12z"/>
<path d="M14635 6345 c-22 -21 -25 -33 -25 -90 0 -57 3 -69 25 -90 24 -25 26
-25 210 -25 l185 0 0 -430 c0 -479 1 -488 60 -509 42 -14 118 -14 159 0 61 21
61 23 61 504 l0 435 180 0 c189 0 224 7 237 44 4 12 6 48 6 81 -1 51 -5 63
-28 82 l-26 23 -510 0 -510 0 -24 -25z"/>
<path d="M18685 4777 c-108 -52 -225 -187 -305 -352 -72 -148 -94 -240 -94
-405 0 -208 46 -367 154 -529 160 -238 415 -393 698 -426 l62 -7 0 231 0 231
-27 5 c-73 16 -159 48 -206 78 -157 100 -245 293 -218 475 17 111 64 203 151
291 82 82 103 124 102 202 -1 162 -174 275 -317 206z"/>
<path d="M9552 4191 c-21 -13 -10 -46 16 -49 27 -4 40 22 22 43 -14 17 -20 18
-38 6z"/>
<path d="M8310 4125 l0 -64 -35 21 c-52 30 -110 20 -152 -26 -29 -31 -33 -43
-33 -88 0 -59 24 -109 62 -129 39 -21 105 -15 133 11 l25 23 0 -21 c0 -17 6
-22 25 -22 l25 0 0 180 0 180 -25 0 c-24 0 -25 -2 -25 -65z m-29 -94 c33 -33
38 -75 14 -120 -16 -32 -33 -41 -78 -41 -47 0 -77 34 -77 87 0 52 13 81 43 93
40 16 68 10 98 -19z"/>
<path d="M8560 4011 l0 -181 25 0 c15 0 25 6 25 14 0 11 8 10 38 -6 141 -73
256 157 120 242 -39 25 -108 22 -138 -5 -18 -17 -19 -15 -22 46 -3 58 -5 64
-25 67 l-23 3 0 -180z m192 19 c28 -28 30 -36 25 -78 -6 -57 -33 -82 -87 -82
-50 0 -80 35 -80 94 0 44 12 66 45 84 34 19 65 13 97 -18z"/>
<path d="M6524 4151 c-114 -69 -119 -233 -10 -300 66 -41 183 -21 226 39 26
36 25 40 -4 40 -14 0 -38 -13 -54 -30 -24 -24 -39 -30 -72 -30 -61 0 -95 22
-115 74 -52 135 94 248 192 150 16 -17 34 -24 51 -22 l25 3 -28 33 c-15 18
-40 39 -56 47 -40 21 -117 19 -155 -4z"/>
<path d="M9260 4150 c0 -17 7 -20 45 -20 l45 0 0 -150 0 -150 25 0 25 0 0 150
0 150 45 0 c38 0 45 3 45 20 0 19 -7 20 -115 20 -108 0 -115 -1 -115 -20z"/>
<path d="M10460 4001 l0 -171 80 0 c73 0 80 2 80 20 0 18 -7 20 -55 20 l-54 0
-3 148 c-3 144 -3 147 -25 150 l-23 3 0 -170z"/>
<path d="M12000 4000 l0 -170 25 0 25 0 0 170 0 170 -25 0 -25 0 0 -170z"/>
<path d="M7640 4131 c0 -20 -6 -30 -20 -34 -11 -3 -20 -12 -20 -21 0 -9 8 -16
20 -16 19 0 20 -7 20 -98 0 -113 10 -132 73 -132 30 0 37 4 37 20 0 16 -7 20
-30 20 l-30 0 0 95 0 95 30 0 c23 0 30 4 30 20 0 16 -7 20 -30 20 -27 0 -30 3
-30 30 0 25 -4 30 -25 30 -21 0 -25 -5 -25 -29z"/>
<path d="M6827 4093 c-4 -3 -7 -64 -7 -135 l0 -128 25 0 c25 0 25 1 25 88 0
98 9 118 55 130 33 9 50 52 20 52 -20 0 -57 -19 -67 -34 -5 -6 -8 -1 -8 12 0
21 -27 31 -43 15z"/>
<path d="M7064 4090 c-11 -4 -33 -22 -47 -40 -36 -42 -38 -121 -4 -171 27 -40
84 -62 134 -53 32 6 93 55 93 75 0 17 -47 9 -65 -11 -36 -40 -135 -15 -135 35
0 12 18 15 100 15 115 0 123 6 99 74 -24 69 -105 104 -175 76z m119 -61 c33
-41 24 -49 -63 -49 -72 0 -80 2 -80 19 0 11 12 29 27 41 34 27 89 22 116 -11z"/>
<path d="M7348 4084 c-57 -30 -82 -141 -45 -198 41 -62 121 -79 176 -38 30 22
31 22 31 2 0 -15 7 -20 25 -20 l26 0 -3 133 c-3 128 -4 132 -25 135 -18 3 -23
-2 -23 -17 l0 -21 -32 20 c-39 23 -92 25 -130 4z m106 -34 c34 -12 60 -64 52
-103 -15 -75 -98 -104 -147 -51 -36 38 -34 107 4 140 30 26 52 29 91 14z"/>
<path d="M7864 4090 c-11 -4 -33 -22 -47 -40 -36 -42 -38 -121 -4 -171 27 -40
84 -62 134 -53 32 6 93 55 93 75 0 17 -47 9 -65 -11 -36 -40 -135 -15 -135 35
0 12 18 15 100 15 115 0 123 6 99 74 -24 69 -105 104 -175 76z m119 -61 c33
-41 24 -49 -63 -49 -72 0 -80 2 -80 19 0 11 12 29 27 41 34 27 89 22 116 -11z"/>
<path d="M8858 4095 c-3 -3 18 -63 47 -134 l53 -128 -24 -58 c-29 -72 -30 -77
-2 -73 19 2 35 32 100 188 42 102 77 191 77 198 1 8 -8 12 -21 10 -18 -2 -29
-20 -55 -88 -18 -47 -36 -94 -41 -104 -6 -15 -17 4 -48 85 -31 79 -45 105 -60
107 -11 2 -22 0 -26 -3z"/>
<path d="M9550 3965 c0 -128 1 -135 20 -135 19 0 20 7 20 135 0 128 -1 135
-20 135 -19 0 -20 -7 -20 -135z"/>
<path d="M9667 4093 c-4 -3 -7 -64 -7 -135 l0 -128 25 0 c25 0 25 1 25 90 0
83 2 93 25 115 29 30 68 32 95 5 17 -17 20 -33 20 -115 0 -95 0 -95 25 -95 25
0 25 1 25 90 0 83 2 93 25 115 29 30 68 32 95 5 17 -17 20 -33 20 -115 0 -95
0 -95 25 -95 25 0 25 0 25 95 0 110 -13 145 -60 165 -39 16 -96 7 -126 -21
-13 -13 -24 -17 -24 -11 0 16 -53 42 -85 42 -14 0 -39 -7 -55 -15 -27 -14 -30
-14 -30 0 0 15 -31 21 -43 8z"/>
<path d="M10213 4085 c-51 -22 -82 -101 -63 -164 30 -104 157 -130 226 -48
l27 32 -22 3 c-13 2 -33 -5 -45 -17 -44 -41 -119 -24 -139 32 -6 15 3 17 98
17 114 0 110 -2 105 59 -7 80 -102 123 -187 86z m100 -36 c27 -14 37 -28 37
-51 0 -16 -10 -18 -79 -18 -75 0 -79 1 -74 20 7 26 50 60 75 60 11 0 29 -5 41
-11z"/>
<path d="M10709 4077 c-92 -62 -67 -216 41 -248 33 -10 44 -9 79 8 32 16 41
17 41 7 0 -8 10 -14 25 -14 l25 0 0 135 c0 130 -1 135 -21 135 -12 0 -23 -8
-26 -20 -5 -20 -5 -20 -30 0 -35 27 -91 26 -134 -3z m120 -32 c34 -17 41 -33
41 -88 0 -52 -30 -87 -76 -87 -46 0 -63 9 -79 41 -24 45 -19 87 14 120 33 32
58 36 100 14z"/>
<path d="M10994 4087 c-2 -7 -3 -96 -2 -197 3 -183 3 -185 26 -188 21 -3 22
-1 22 83 l0 86 25 -20 c86 -67 195 -4 195 112 0 59 -23 101 -66 122 -43 20
-83 19 -121 -5 -33 -20 -33 -20 -33 0 0 23 -37 29 -46 7z m171 -37 c32 -12 58
-69 49 -108 -10 -42 -43 -72 -80 -72 -46 0 -63 9 -79 41 -24 45 -19 87 14 120
31 31 53 35 96 19z"/>
<path d="M11354 4088 c-30 -14 -48 -51 -40 -83 5 -20 19 -32 54 -46 105 -43
120 -62 73 -85 -27 -14 -76 -1 -85 22 -3 8 -15 14 -26 14 -30 0 -23 -37 13
-64 61 -45 167 -11 167 54 0 39 -19 58 -79 78 -62 21 -82 42 -62 66 20 24 59
19 85 -9 13 -14 31 -25 40 -25 27 0 18 36 -15 64 -33 28 -85 34 -125 14z"/>
<path d="M11623 4085 c-51 -22 -82 -101 -63 -164 30 -104 157 -130 226 -48
l27 32 -22 3 c-13 2 -33 -5 -45 -17 -44 -41 -119 -24 -139 32 -6 15 3 17 98
17 114 0 110 -2 105 59 -7 80 -102 123 -187 86z m100 -36 c27 -14 37 -28 37
-51 0 -16 -10 -18 -79 -18 -75 0 -79 1 -74 20 7 26 50 60 75 60 11 0 29 -5 41
-11z"/>
<path d="M12120 3965 l0 -135 25 0 c25 0 25 0 25 95 0 82 3 98 20 115 26 26
60 25 94 -1 25 -19 26 -25 26 -115 l0 -94 26 0 26 0 -4 106 c-3 105 -3 106
-36 135 -37 33 -93 39 -129 14 -19 -13 -22 -13 -27 0 -3 8 -15 15 -26 15 -19
0 -20 -6 -20 -135z"/>
<path d="M12473 4081 c-59 -37 -79 -113 -49 -184 33 -80 143 -98 207 -35 36
36 38 58 4 58 -14 0 -25 -4 -25 -9 0 -21 -34 -41 -70 -41 -51 0 -80 35 -80 97
0 83 80 123 136 68 25 -25 64 -34 64 -15 0 5 -13 24 -28 41 -37 42 -110 51
-159 20z"/>
<path d="M12712 3873 c-13 -26 -4 -43 23 -43 27 0 40 26 24 46 -16 19 -37 17
-47 -3z"/>
<path d="M3160 3719 c-178 -18 -394 -103 -546 -217 -148 -111 -295 -285 -378
-449 -14 -29 -30 -53 -34 -53 -10 0 -286 102 -294 109 -4 4 -24 60 -44 126
-20 66 -41 125 -48 132 -12 12 -571 223 -592 223 -23 0 -24 -16 -5 -123 10
-59 15 -107 10 -107 -4 0 -44 14 -88 31 -44 17 -88 29 -97 27 -10 -2 -30 -41
-55 -108 -21 -58 -39 -110 -39 -116 0 -6 39 -26 88 -44 48 -18 90 -36 95 -39
4 -4 -32 -40 -79 -80 -72 -61 -84 -75 -73 -86 14 -13 573 -225 594 -225 6 0
62 32 124 71 l112 72 117 -43 c64 -24 135 -51 158 -61 l41 -17 -14 -78 c-22
-124 -12 -371 21 -502 126 -502 495 -841 980 -902 132 -17 382 -7 496 19 412
94 739 396 873 806 113 345 78 720 -95 1018 -156 270 -376 441 -703 547 -207
67 -356 86 -525 69z m243 -46 c-7 -2 -19 -2 -25 0 -7 3 -2 5 12 5 14 0 19 -2
13 -5z m622 -303 c33 -33 57 -60 54 -60 -2 0 -31 27 -64 60 -33 33 -57 60 -54
60 2 0 31 -27 64 -60z m-1455 37 c0 -1 -30 -32 -67 -67 l-68 -65 65 68 c60 62
70 72 70 64z m798 -93 c361 -74 612 -399 612 -792 0 -242 -80 -447 -239 -616
-152 -160 -333 -238 -551 -239 -329 -1 -607 214 -715 553 -23 70 -28 110 -33
222 -2 75 -2 148 2 161 l6 24 102 -37 103 -38 7 -88 c13 -153 65 -271 161
-367 191 -191 495 -188 690 7 71 71 127 168 151 262 20 77 20 221 1 294 -62
233 -259 390 -488 390 -142 0 -300 -81 -391 -199 -21 -28 -43 -51 -49 -51 -5
0 -55 17 -109 37 -75 28 -97 40 -93 51 15 41 100 154 157 209 80 78 98 93 178
137 161 88 329 115 498 80z m-938 -57 c0 -2 -10 -12 -22 -23 l-23 -19 19 23
c18 21 26 27 26 19z m230 -132 c-24 -25 -46 -45 -49 -45 -3 0 15 20 39 45 24
25 46 45 49 45 3 0 -15 -20 -39 -45z m1120 20 c13 -14 21 -25 18 -25 -2 0 -15
11 -28 25 -13 14 -21 25 -18 25 2 0 15 -11 28 -25z m-617 -142 c-7 -2 -19 -2
-25 0 -7 3 -2 5 12 5 14 0 19 -2 13 -5z m308 -100 c13 -16 12 -17 -3 -4 -17
13 -22 21 -14 21 2 0 10 -8 17 -17z m-581 -6 c0 -2 -15 -16 -32 -33 l-33 -29
29 33 c28 30 36 37 36 29z m630 -42 c13 -14 21 -25 18 -25 -2 0 -15 11 -28 25
-13 14 -21 25 -18 25 2 0 15 -11 28 -25z m-301 -165 c137 -70 155 -264 31
-346 -79 -53 -181 -39 -254 33 -56 56 -47 66 33 36 84 -31 126 -26 170 18 36
35 47 84 31 133 -15 46 -44 68 -125 97 -91 32 -85 45 23 48 35 1 66 -6 91 -19z
m1138 -52 c-3 -7 -5 -2 -5 12 0 14 2 19 5 13 2 -7 2 -19 0 -25z m-720 -60 c-3
-8 -6 -5 -6 6 -1 11 2 17 5 13 3 -3 4 -12 1 -19z m390 -20 c-3 -7 -5 -2 -5 12
0 14 2 19 5 13 2 -7 2 -19 0 -25z m-1630 -10 c-3 -8 -6 -5 -6 6 -1 11 2 17 5
13 3 -3 4 -12 1 -19z m-250 -35 c-3 -10 -5 -2 -5 17 0 19 2 27 5 18 2 -10 2
-26 0 -35z m564 -20 c-4 -28 -6 -32 -9 -15 -3 22 3 52 11 52 1 0 1 -17 -2 -37z
m1316 -50 c-3 -10 -5 -2 -5 17 0 19 2 27 5 18 2 -10 2 -26 0 -35z m-390 -5
c-3 -8 -6 -5 -6 6 -1 11 2 17 5 13 3 -3 4 -12 1 -19z m-1490 -40 c-2 -13 -4
-5 -4 17 -1 22 1 32 4 23 2 -10 2 -28 0 -40z m250 -10 c-3 -8 -6 -5 -6 6 -1
11 2 17 5 13 3 -3 4 -12 1 -19z m1960 -10 c-3 -7 -5 -2 -5 12 0 14 2 19 5 13
2 -7 2 -19 0 -25z m-1381 -40 l29 -33 -32 29 c-31 28 -38 36 -30 36 2 0 16
-15 33 -32z m-819 -50 c-3 -8 -6 -5 -6 6 -1 11 2 17 5 13 3 -3 4 -12 1 -19z
m698 -158 c21 -22 37 -40 34 -40 -3 0 -23 18 -44 40 -21 22 -37 40 -34 40 3 0
23 -18 44 -40z m665 37 c0 -2 -17 -19 -37 -38 l-38 -34 34 38 c33 34 41 42 41
34z m-423 -163 c-3 -3 -12 -4 -19 -1 -8 3 -5 6 6 6 11 1 17 -2 13 -5z m-486
-111 c13 -16 12 -17 -3 -4 -17 13 -22 21 -14 21 2 0 10 -8 17 -17z m1179 -6
c0 -2 -15 -16 -32 -33 l-33 -29 29 33 c28 30 36 37 36 29z m-1089 -84 c13 -16
12 -17 -3 -4 -17 13 -22 21 -14 21 2 0 10 -8 17 -17z m1379 -96 c0 -2 -12 -14
-27 -28 l-28 -24 24 28 c23 25 31 32 31 24z m-1585 -97 c33 -33 57 -60 54 -60
-2 0 -31 27 -64 60 -33 33 -57 60 -54 60 2 0 31 -27 64 -60z m622 14 c-3 -3
-12 -4 -19 -1 -8 3 -5 6 6 6 11 1 17 -2 13 -5z m843 -37 c0 -2 -10 -12 -22
-23 l-23 -19 19 23 c18 21 26 27 26 19z m-60 -51 c0 -2 -8 -10 -17 -17 -16
-13 -17 -12 -4 4 13 16 21 21 21 13z m-280 -166 c-8 -5 -19 -10 -25 -10 -5 0
-3 5 5 10 8 5 20 10 25 10 6 0 3 -5 -5 -10z m-143 -46 c-3 -3 -12 -4 -19 -1
-8 3 -5 6 6 6 11 1 17 -2 13 -5z m-420 -10 c-3 -3 -12 -4 -19 -1 -8 3 -5 6 6
6 11 1 17 -2 13 -5z m370 0 c-3 -3 -12 -4 -19 -1 -8 3 -5 6 6 6 11 1 17 -2 13
-5z m-294 -11 c-7 -2 -21 -2 -30 0 -10 3 -4 5 12 5 17 0 24 -2 18 -5z m224 1
c-3 -3 -12 -4 -19 -1 -8 3 -5 6 6 6 11 1 17 -2 13 -5z"/>
<path d="M12850 3138 c0 -3 36 -138 47 -172 5 -18 3 -18 -30 2 -40 25 -57 28
-57 8 0 -20 277 -1057 284 -1064 10 -9 20 6 102 160 44 82 82 147 86 145 4 -1
72 -80 150 -176 79 -96 148 -176 153 -178 6 -2 51 35 100 81 l90 84 -27 29
c-16 16 -28 32 -28 35 0 4 20 26 45 50 l45 43 -100 114 c-55 63 -100 115 -100
116 0 1 38 12 85 25 47 13 85 28 85 34 0 6 -34 28 -75 49 -41 20 -75 40 -75
45 0 4 39 17 87 30 48 12 91 26 96 31 4 4 -202 119 -458 255 -421 224 -505
267 -505 254z m520 -286 c212 -112 389 -208 393 -212 4 -4 -60 -24 -143 -46
-82 -21 -150 -42 -150 -46 0 -5 70 -88 155 -186 l155 -177 -72 -65 c-39 -36
-75 -65 -79 -65 -4 0 -73 81 -153 180 -81 99 -152 181 -159 183 -7 1 -47 -66
-90 -149 -44 -83 -80 -149 -82 -147 -2 2 -60 219 -130 482 -70 264 -129 486
-132 494 -7 17 0 13 487 -246z"/>
<path d="M11648 1389 c-207 -14 -446 -78 -629 -170 -246 -123 -477 -354 -651
-650 -67 -116 -258 -497 -273 -546 l-6 -23 1505 0 1506 0 1 53 c6 298 -48 525
-178 747 -232 396 -729 625 -1275 589z"/>
</g>
</svg>
